<svg xmlns="http://www.w3.org/2000/svg" version="1.1" xmlns:xlink="http://www.w3.org/1999/xlink" width="200" height="200"><svg xmlns="http://www.w3.org/2000/svg" version="1.1" xmlns:xlink="http://www.w3.org/1999/xlink" viewBox="0 0 200 200"><rect width="200" height="200" fill="url('#gradient')"></rect><defs><linearGradient id="SvgjsLinearGradient1074" gradientTransform="rotate(45 0.5 0.5)"><stop offset="0%" stop-color="#ba4c46"></stop><stop offset="100%" stop-color="#1b7241"></stop></linearGradient></defs><g><g fill="#bba930" transform="matrix(3.992202729044834,0,0,3.992202729044834,8.598010406391893,127.9870591386717)" stroke="#664222" stroke-width="0.2"><path d="M12.24-14.22L12.24-11.57L7.97-11.57L7.97 0L4.54 0L4.54-11.57L0.35-11.57L0.35-14.22L12.24-14.22ZM11.09-4.82L11.08-5.38Q11.08-6.96 11.70-8.20Q12.31-9.43 13.47-10.10Q14.62-10.76 16.17-10.76L16.17-10.76Q18.54-10.76 19.91-9.29Q21.28-7.82 21.28-5.29L21.28-5.29L21.28-5.18Q21.28-2.71 19.91-1.25Q18.54 0.20 16.19 0.20L16.19 0.20Q13.94 0.20 12.57-1.16Q11.20-2.51 11.09-4.82L11.09-4.82ZM14.38-5.77L14.38-5.18Q14.38-3.71 14.83-3.03Q15.29-2.34 16.19-2.34L16.19-2.34Q17.95-2.34 17.99-5.05L17.99-5.05L17.99-5.38Q17.99-8.22 16.17-8.22L16.17-8.22Q14.52-8.22 14.38-5.77L14.38-5.77ZM27.56 0L22.88 0L22.88-14.22L27.46-14.22Q29.35-14.22 30.85-13.36Q32.35-12.51 33.20-10.95Q34.04-9.39 34.05-7.46L34.05-7.46L34.05-6.81Q34.05-4.85 33.23-3.31Q32.40-1.76 30.90-0.88Q29.40-0.01 27.56 0L27.56 0ZM27.46-11.57L26.31-11.57L26.31-2.64L27.50-2.64Q28.97-2.64 29.77-3.69Q30.56-4.74 30.56-6.81L30.56-6.81L30.56-7.42Q30.56-9.48 29.77-10.53Q28.97-11.57 27.46-11.57L27.46-11.57ZM35.25-4.82L35.24-5.38Q35.24-6.96 35.86-8.20Q36.47-9.43 37.63-10.10Q38.78-10.76 40.33-10.76L40.33-10.76Q42.71-10.76 44.07-9.29Q45.44-7.82 45.44-5.29L45.44-5.29L45.44-5.18Q45.44-2.71 44.07-1.25Q42.70 0.20 40.35 0.20L40.35 0.20Q38.10 0.20 36.73-1.16Q35.36-2.51 35.25-4.82L35.25-4.82ZM38.54-5.77L38.54-5.18Q38.54-3.71 38.99-3.03Q39.45-2.34 40.35-2.34L40.35-2.34Q42.11-2.34 42.15-5.05L42.15-5.05L42.15-5.38Q42.15-8.22 40.33-8.22L40.33-8.22Q38.68-8.22 38.54-5.77L38.54-5.77Z"></path></g></g></svg><style>@media (prefers-color-scheme: light) { :root { filter: none; } }
@media (prefers-color-scheme: dark) { :root { filter: none; } }
</style></svg>